<svg width="78" height="70" viewBox="0 0 78 70" fill="none" xmlns="http://www.w3.org/2000/svg">
<path d="M21.2794 0.0338745C16.0428 0.0338745 10.7993 2.15128 6.8731 6.37762C-0.979421 14.83 -0.969181 28.2634 6.8731 36.7213L36.7794 69.0026C37.0603 69.3064 37.401 69.5489 37.7802 69.7147C38.1593 69.8806 38.5686 69.9662 38.9825 69.9662C39.3963 69.9662 39.8057 69.8806 40.1848 69.7147C40.5639 69.5489 40.9047 69.3064 41.1856 69.0026C51.1686 58.2567 61.1401 47.4989 71.1231 36.7526C78.9756 28.3002 78.9755 14.8616 71.1231 6.40887C63.2707 -2.0439 50.1944 -2.04407 42.3419 6.40887L38.9981 9.97137L35.6544 6.37762C31.7281 2.1513 26.5159 0.0338745 21.2794 0.0338745V0.0338745ZM21.2794 5.87762C24.8644 5.87762 28.446 7.42146 31.2794 10.4714L36.8106 16.4401C37.0915 16.744 37.4323 16.9864 37.8114 17.1523C38.1905 17.3181 38.5999 17.4037 39.0137 17.4037C39.4276 17.4037 39.8369 17.3181 40.216 17.1523C40.5952 16.9864 40.9359 16.744 41.2169 16.4401L46.7169 10.5026C52.3836 4.40258 61.0502 4.40271 66.7169 10.5026C72.3835 16.6025 72.3835 26.5906 66.7169 32.6901C57.4717 42.6422 48.2434 52.582 38.9981 62.5338L11.2793 32.6588C5.61559 26.5504 5.58152 16.5709 11.2482 10.4714C14.0815 7.42147 17.6943 5.87762 21.2794 5.87762H21.2794Z" fill="#DC3384"/>
</svg>
