<svg width="90" height="69" viewBox="0 0 90 69" fill="none" xmlns="http://www.w3.org/2000/svg">
<path d="M44.969 11.572C59.515 11.572 72.772 16.999 82.938 25.898L90 17.999C77.959 7.408 62.234 0 44.969 0C27.728 0 12.027 7.387 0 17.952L7.046 25.859C17.205 16.97 30.438 11.572 44.969 11.572Z" fill="black"/>
<path d="M44.9842 34.3648C53.7002 34.3648 61.6692 37.5688 67.8142 42.8568L75.2772 34.4968C67.1542 27.4218 56.5802 22.7998 44.9842 22.7998C33.4042 22.7998 22.8452 27.4108 14.7222 34.4598L22.1762 42.8278C28.3242 37.5628 36.2782 34.3648 44.9842 34.3648Z" fill="black"/>
<path d="M60.3509 51.2179C56.1929 47.7169 50.8369 45.2969 44.9919 45.2969C39.1489 45.2969 33.8009 47.7099 29.6499 51.1959L44.9919 68.4189L60.3509 51.2179Z" fill="black"/>
</svg>
